name rise30.6535peak61.5555fall82.9339.mot
datacolumns 19
datarows 17
range 17.03493200000000 17.06159900000000
endheader
time	ground_force1_vx	ground_force1_vy	ground_force1_vz	ground_force1_px	ground_force1_py	ground_force1_pz	ground_force2_vx	ground_force2_vy	ground_force2_vz	ground_force2_px	ground_force2_py	ground_force2_pz	ground_torque1_x	ground_torque1_y	ground_torque1_z	ground_torque2_x	ground_torque2_y	ground_torque2_z	
17.03493200000000	-8.70272400000000	41.93519000000000	-11.51686400000000	0.33723000000000	0.00000000000000	0.10595200000000	-45.65773800000000	809.36522800000000	-53.17089400000000	0.17091900000000	0.00000000000000	-0.07353500000000	0.00000000000000	-7.63597400000000	0.00000000000000	0.00000000000000	-22.87669700000000	0.00000000000000	
17.03660500000000	-9.54013800000000	49.21429900000000	-12.96197100000000	0.34121600000000	0.00000000000000	0.10682100000000	-46.38941100000000	807.00983299999996	-53.00300000000000	0.16990100000000	0.00000000000000	-0.07348200000000	0.00000000000000	-8.68404600000000	0.00000000000000	0.00000000000000	-22.82316900000000	0.00000000000000	
17.03826200000000	-10.21150700000000	56.60053500000000	-14.27841900000000	0.34492000000000	0.00000000000000	0.10761500000000	-47.14193800000000	804.50290099999995	-52.81437200000000	0.16888000000000	0.00000000000000	-0.07342800000000	0.00000000000000	-9.66619000000000	0.00000000000000	0.00000000000000	-22.76914300000000	0.00000000000000	
17.03993400000000	-10.69303200000000	63.99956400000000	-15.43544000000000	0.34839000000000	0.00000000000000	0.10834500000000	-47.91458500000000	801.84075399999995	-52.60465700000000	0.16785700000000	0.00000000000000	-0.07337200000000	0.00000000000000	-10.56072600000000	0.00000000000000	0.00000000000000	-22.71454500000000	0.00000000000000	
17.04160300000000	-10.97059900000000	71.33947800000000	-16.41241400000000	0.35166100000000	0.00000000000000	0.10902000000000	-48.70648800000000	799.01968399999998	-52.37351900000000	0.16683100000000	0.00000000000000	-0.07331500000000	0.00000000000000	-11.35232100000000	0.00000000000000	0.00000000000000	-22.65928600000000	0.00000000000000	
17.04326300000000	-11.03963000000000	78.57306500000000	-17.19902500000000	0.35476600000000	0.00000000000000	0.10964900000000	-49.51665300000000	796.03595800000005	-52.12064100000000	0.16580500000000	0.00000000000000	-0.07325500000000	0.00000000000000	-12.03225000000000	0.00000000000000	0.00000000000000	-22.60326100000000	0.00000000000000	
17.04493200000000	-10.90419300000000	85.67766800000000	-17.79455500000000	0.35772600000000	0.00000000000000	0.11023700000000	-50.34395500000000	792.88583500000004	-51.84572900000000	0.16477900000000	0.00000000000000	-0.07319400000000	0.00000000000000	-12.59807500000000	0.00000000000000	0.00000000000000	-22.54634800000000	0.00000000000000	
17.04659700000000	-10.57554800000000	92.65305499999999	-18.20650900000000	0.36056200000000	0.00000000000000	0.11078900000000	-51.18713800000000	789.56558099999995	-51.54851300000000	0.16375400000000	0.00000000000000	-0.07313100000000	0.00000000000000	-13.05287100000000	0.00000000000000	0.00000000000000	-22.48841000000000	0.00000000000000	
17.04826200000000	-10.07036000000000	99.51779800000000	-18.44880800000000	0.36329000000000	0.00000000000000	0.11131000000000	-52.04481800000000	786.07147799999996	-51.22875000000000	0.16273200000000	0.00000000000000	-0.07306600000000	0.00000000000000	-13.40411800000000	0.00000000000000	0.00000000000000	-22.42929200000000	0.00000000000000	
17.04993300000000	-9.40878300000000	106.30474000000000	-18.53976800000000	0.36592200000000	0.00000000000000	0.11180400000000	-52.91548200000000	782.39984700000002	-50.88622200000000	0.16171400000000	0.00000000000000	-0.07299900000000	0.00000000000000	-13.66244000000000	0.00000000000000	0.00000000000000	-22.36882600000000	0.00000000000000	
17.05160000000000	-8.61258800000000	113.05608599999999	-18.50007900000000	0.36846900000000	0.00000000000000	0.11227300000000	-53.79749000000000	778.54705899999999	-50.52074400000000	0.16070000000000	0.00000000000000	-0.07293000000000	0.00000000000000	-13.84028800000000	0.00000000000000	0.00000000000000	-22.30682700000000	0.00000000000000	
17.05326500000000	-7.70348700000000	119.81856000000001	-18.35093900000000	0.37094100000000	0.00000000000000	0.11271900000000	-54.68908100000000	774.50955799999997	-50.13216200000000	0.15969200000000	0.00000000000000	-0.07285900000000	0.00000000000000	-13.95071000000000	0.00000000000000	0.00000000000000	-22.24309500000000	0.00000000000000	
17.05492900000000	-6.70174600000000	126.63903600000000	-18.11246700000000	0.37334300000000	0.00000000000000	0.11314500000000	-55.58837100000000	770.28387399999997	-49.72035600000000	0.15869100000000	0.00000000000000	-0.07278500000000	0.00000000000000	-14.00628200000000	0.00000000000000	0.00000000000000	-22.17741700000000	0.00000000000000	
17.05660400000000	-5.62515900000000	133.56087400000001	-17.80248300000000	0.37568200000000	0.00000000000000	0.11355400000000	-56.49336300000000	765.86664900000005	-49.28524500000000	0.15769900000000	0.00000000000000	-0.07270900000000	0.00000000000000	-14.01824700000000	0.00000000000000	0.00000000000000	-22.10956500000000	0.00000000000000	
17.05826300000000	-4.48837700000000	140.62114800000001	-17.43566400000000	0.37796300000000	0.00000000000000	0.11394500000000	-57.40194700000000	761.25465599999995	-48.82678300000000	0.15671600000000	0.00000000000000	-0.07263000000000	0.00000000000000	-13.99591900000000	0.00000000000000	0.00000000000000	-22.03930000000000	0.00000000000000	
17.05993200000000	-3.30260600000000	147.84879400000000	-17.02310100000000	0.38019000000000	0.00000000000000	0.11432100000000	-58.31190600000000	756.44481699999994	-48.34496600000000	0.15574300000000	0.00000000000000	-0.07254900000000	0.00000000000000	-13.94632400000000	0.00000000000000	0.00000000000000	-21.96636800000000	0.00000000000000	
17.06159900000000	-2.07561100000000	155.26367400000001	-16.57219700000000	0.38236700000000	0.00000000000000	0.11468300000000	-59.22092300000000	751.43422799999996	-47.83983100000000	0.15478200000000	0.00000000000000	-0.07246500000000	0.00000000000000	-13.87408700000000	0.00000000000000	0.00000000000000	-21.89050600000000	0.00000000000000	
